<svg width="177" height="35" viewBox="0 0 177 35" fill="none" xmlns="http://www.w3.org/2000/svg">
<path d="M6.13111 26.3498H7.10943C7.50741 26.1578 7.86799 26.0491 8.22721 25.9409C8.74772 25.784 9.2654 25.628 9.88994 25.2205C12.6594 23.4134 13.1486 19.2662 11.1882 17.0741C10.018 15.7748 9.11033 15.3766 7.69298 14.7546L7.69221 14.7543L7.69186 14.7541C7.28768 14.5767 6.84205 14.3812 6.33707 14.1414C2.20644 12.2137 5.31619 10.1545 5.77518 9.85051L5.77609 9.8499C5.80941 9.82784 5.82851 9.81517 5.82952 9.81265V8.63513C-0.761319 9.13132 -0.860623 15.4411 1.41601 18.0146C2.2083 18.9186 3.55053 19.5267 4.91438 20.1446C5.44988 20.3872 5.98871 20.6313 6.4989 20.8955C8.74978 22.0619 8.41877 23.8578 7.34482 24.4836C7.00624 24.6767 6.76177 24.7528 6.58527 24.8078C6.14247 24.9457 6.12743 24.9503 6.12743 26.335L6.13111 26.3498Z" fill="#B8B8BF"/>
<path d="M150.913 16.0763C150.217 13.3446 149.454 10.3478 149.923 9.08692L149.919 9.10174C150.718 8.79068 153.862 8.90176 154.877 9.02767C155.449 10.9195 155.907 13.0441 156.351 15.0995L156.351 15.1004C156.553 16.0339 156.751 16.953 156.955 17.8295C156.973 17.9085 157.002 18.04 157.04 18.2124L157.04 18.2134L157.04 18.214C157.356 19.6587 158.3 23.965 158.592 24.3651C158.786 24.6254 158.993 24.7214 159.166 24.8016C159.466 24.9404 159.663 25.0318 159.511 25.8463C158.408 26.1981 152.693 26.261 151.788 25.7722C151.666 24.9592 151.83 24.876 152.151 24.7136C152.286 24.6452 152.449 24.5627 152.63 24.4059C152.614 23.5397 152.474 22.6804 152.214 21.8545H148.809L149.114 20.3734L151.817 20.3512C151.743 19.3371 151.341 17.7568 150.913 16.0763Z" fill="#B8B8BF"/>
<path d="M63.3686 10.4695C63.1753 10.3878 62.9516 10.2933 62.6277 10.0273C62.6546 8.93835 63.1141 8.94686 64.0287 8.96367L64.032 8.96374C64.0852 8.96471 64.1399 8.9657 64.1962 8.96653C64.2667 8.96754 64.3397 8.96826 64.4151 8.96826L69.4649 8.99047C69.9786 9.57235 72.1577 13.5127 73.2857 15.5524C73.5144 15.9659 73.6999 16.3013 73.8196 16.5148C74.3717 17.5016 74.7961 18.2022 75.1214 18.7392C75.6004 19.53 75.8647 19.9662 76.0057 20.4396C76.1791 21.0218 76.1662 21.6603 76.1374 23.0841C76.1226 23.8168 76.1036 24.7574 76.1036 26.0053L72.661 26.0387C72.3157 25.1813 71.6479 24.0638 71.0378 23.0431C70.7837 22.6178 70.5395 22.2091 70.3329 21.8433L64.3894 11.4751C63.9228 10.7037 63.6866 10.6039 63.3686 10.4695Z" fill="#B8B8BF"/>
<path d="M80.7966 23.2616V11.7974C80.7966 10.5364 80.6827 10.5078 80.4002 10.4369C80.2489 10.3989 80.0491 10.3487 79.7925 10.0904C78.9944 9.25352 80.0279 8.94989 80.8333 8.94989C81.1308 8.94989 81.5446 8.93805 82.0233 8.92434C83.8468 8.87212 86.6128 8.79291 87.4867 9.23872C87.5229 10.1384 87.3977 10.1751 87.0914 10.2647C86.8997 10.3209 86.6371 10.3978 86.2987 10.7199L86.3686 24.1614C86.6144 24.5744 86.8814 24.6656 87.0929 24.7379C87.3877 24.8387 87.5747 24.9026 87.4463 25.75C87.0792 25.9522 86.6655 26.0532 86.2472 26.0425C86.0073 26.0425 85.6385 26.0563 85.1942 26.073C82.7845 26.1633 78.1564 26.3366 79.855 24.8391C80.0928 24.6279 80.2765 24.5742 80.4157 24.5336C80.6964 24.4517 80.7966 24.4224 80.7966 23.2616Z" fill="#B8B8BF"/>
<path d="M89.8774 9.26094C89.8394 10.2178 90.1016 10.2592 90.3907 10.305C90.7181 10.3568 91.08 10.4141 91.08 11.8122V23.2616C91.08 24.4369 90.9229 24.4767 90.6417 24.5479C90.4798 24.5889 90.2769 24.6403 90.0392 24.9242C89.1859 25.9537 90.646 26.0351 91.297 26.0351C91.7946 26.0351 92.2763 26.0389 92.7485 26.0426H92.7506C94.4173 26.0557 95.9675 26.0679 97.6893 25.9092C97.8684 24.8396 97.6069 24.7813 97.2915 24.7109C96.9593 24.6369 96.5675 24.5495 96.5675 23.2542V11.8122C96.5675 10.3967 96.9293 10.3476 97.2567 10.3031C97.5459 10.2638 97.8081 10.2282 97.7702 9.25723C96.9353 8.84992 90.5247 8.64625 89.8774 9.25723V9.26094Z" fill="#B8B8BF"/>
<path d="M160.699 9.15238L160.699 9.13873L160.688 9.15355L160.699 9.15238Z" fill="#B8B8BF"/>
<path d="M160.699 9.15238C160.684 10.118 160.979 10.2293 161.281 10.3436C161.591 10.4608 161.909 10.5811 161.909 11.6308C161.909 12.5938 161.919 13.7196 161.929 14.9158L161.929 14.9198V14.9225C161.956 18.1769 161.987 21.9507 161.847 24.3836C161.619 24.5251 161.42 24.6 161.254 24.6623C160.826 24.8232 160.624 24.8991 160.744 25.8203C161.588 26.1335 164.47 26.0863 166.315 26.0561L166.317 26.0561C166.761 26.0488 167.146 26.0425 167.426 26.0425C167.466 26.0425 167.507 26.0428 167.549 26.0431C168.144 26.0471 168.947 26.0524 168.861 25.3019C168.81 24.8699 168.468 24.7367 168.095 24.5918C167.896 24.5144 167.688 24.4336 167.511 24.3021C167.283 23.9514 167.333 20.308 167.385 16.6163C167.43 13.4094 167.475 10.1661 167.338 9.01284C165.125 8.86735 162.904 8.91405 160.699 9.15238Z" fill="#B8B8BF"/>
<path d="M14.3807 9.17966L14.3803 9.19898L14.3752 9.20206L14.3696 9.20559L14.3807 9.17966Z" fill="#B8B8BF"/>
<path d="M14.3803 9.19898C14.3649 10.164 14.6367 10.243 14.9258 10.3271C15.2441 10.4197 15.5833 10.5183 15.5833 11.8124C15.5833 12.7541 15.5922 13.8505 15.6015 15.0151C15.6275 18.2331 15.6576 21.9716 15.5171 24.4023C15.2954 24.535 15.1016 24.6074 14.94 24.6678C14.5063 24.8298 14.3039 24.9054 14.4138 25.8279C15.2654 26.1465 18.119 26.0988 19.9694 26.0679H19.9787C20.4258 26.0604 20.8139 26.0538 21.1002 26.0538L21.1334 26.0539L21.1608 26.054L21.2132 26.0543L21.2162 26.0543C21.809 26.0579 22.6208 26.0628 22.5346 25.3132C22.4843 24.8745 22.1534 24.748 21.7814 24.6059C21.582 24.5298 21.3709 24.4491 21.1848 24.3135C20.9541 23.9661 21.0056 20.3083 21.0578 16.6074C21.1029 13.4047 21.1485 10.1697 21.0119 9.02044C19.9637 8.94321 14.9252 8.88425 14.3803 9.19898Z" fill="#B8B8BF"/>
<path d="M54.6091 26.0683C52.8237 26.1151 50.6283 26.1726 49.8616 25.75V25.7574C49.6933 24.8505 49.9469 24.8065 50.2842 24.7479C50.7209 24.6721 51.2979 24.5719 51.2813 22.5433C51.2775 22.124 51.2713 21.5763 51.2642 20.941V20.9401C51.2222 17.2159 51.1463 10.4841 51.3254 8.97215L56.7356 9.01659C56.8822 10.6214 56.8258 13.5581 56.7699 16.4651C56.7052 19.8295 56.6412 23.1541 56.8938 24.3281C57.1109 24.463 57.3404 24.541 57.5475 24.6113C58.0456 24.7807 58.4142 24.906 58.17 25.6723C57.915 26.095 57.0183 26.0676 56.4117 26.049C56.3466 26.0471 56.2848 26.0452 56.2276 26.0439C56.2056 26.0435 56.1842 26.0431 56.1636 26.0429C56.1466 26.0427 56.1301 26.0426 56.1141 26.0426C55.691 26.0399 55.1703 26.0536 54.6091 26.0683Z" fill="#B8B8BF"/>
<path d="M131.269 10.6084C131.537 11.6638 131.508 22.9613 131.324 24.3758C131.075 24.5514 130.855 24.6353 130.676 24.7034C130.267 24.8594 130.075 24.9326 130.246 25.8348C131.202 26.1458 135.686 26.1643 136.892 25.9681V8.99767C135.9 8.91778 134.806 8.93383 133.748 8.94937C133.237 8.95688 132.734 8.96426 132.254 8.96064C132.139 8.96064 132.005 8.95279 131.862 8.94439C131.27 8.90965 130.521 8.8657 130.287 9.33093C129.973 9.97452 130.383 10.1585 130.827 10.3577C130.981 10.4267 131.139 10.4975 131.272 10.5899L131.269 10.6084Z" fill="#B8B8BF"/>
<path d="M38.3387 26.35H36.0032L35.1683 26.0057C32.4761 25.0762 31.4867 24.0061 31.4573 20.9031C31.4506 20.1204 31.4763 19.0816 31.5042 17.952C31.5686 15.3514 31.6448 12.269 31.3653 10.7201C31.1174 10.4882 30.8935 10.3894 30.7144 10.3104C30.3703 10.1585 30.1914 10.0796 30.3245 9.26851C31.152 8.70936 37.25 8.85378 38.1401 9.17964C38.1686 10.1138 38.0371 10.1663 37.7217 10.2924C37.5495 10.3612 37.3224 10.452 37.0367 10.7201C36.9153 10.9496 36.6909 22.9322 37.2132 23.9505C37.3852 24.2822 37.5295 24.3719 37.7651 24.5184C37.8267 24.5567 37.8946 24.599 37.9709 24.6504C38.1026 24.7185 38.226 24.8018 38.3387 24.8985V26.35Z" fill="#B8B8BF"/>
<path d="M172.061 26.3498H177V23.4689C176.386 22.8314 176.243 22.9679 176.002 23.1974C175.838 23.3531 175.629 23.5516 175.198 23.58C175.019 23.0077 175.052 22.3863 175.085 21.765C175.132 20.8908 175.179 20.0169 174.635 19.2809C173.957 18.3678 173.413 18.2357 172.715 18.066C172.346 17.9763 171.934 17.876 171.435 17.6442C171.761 17.4848 172.06 17.3584 172.34 17.2404C173.158 16.8953 173.81 16.6205 174.451 15.7928C175.187 14.8486 175.374 13.2008 174.944 11.8862C174.146 9.4349 171.424 8.88318 168.368 8.98315V10.3606C169.823 10.9009 169.805 11.5202 169.763 12.9403V12.941C169.756 13.2046 169.747 13.4958 169.747 13.8191C169.747 13.9461 169.75 14.1046 169.753 14.2803C169.764 14.9398 169.78 15.8424 169.67 16.2371C169.507 16.8288 169.319 16.8939 168.978 17.0124C168.82 17.0675 168.628 17.134 168.39 17.2703C168.366 18.5777 168.679 18.6878 169.014 18.8058C169.299 18.906 169.6 19.012 169.725 19.8623C169.832 20.5702 169.805 21.2592 169.779 21.9182V21.919C169.717 23.5248 169.661 24.9531 171.564 26.0425L171.932 26.2683C171.947 26.2421 171.985 26.279 172.02 26.3134C172.035 26.3275 172.049 26.3412 172.061 26.3498Z" fill="#B8B8BF"/>
<path d="M99.255 14.8308C100.341 13.4188 101.251 12.2352 101.025 10.8676L101.021 10.8454C100.824 10.685 100.608 10.5605 100.407 10.4446C100.041 10.2342 99.7247 10.0521 99.6606 9.73455C99.4971 8.94368 100.282 8.9448 100.965 8.94576L101.036 8.94582C101.404 8.94582 101.814 8.92971 102.232 8.91321L102.233 8.91318C103.851 8.8494 105.612 8.77996 105.714 9.61234C105.781 10.112 105.53 10.2271 105.047 10.4489C104.46 10.7187 103.528 11.1464 102.404 12.6154C102.292 12.7619 102.185 12.8868 102.089 13C101.637 13.5302 101.404 13.8026 101.801 14.8372L105.31 24.0315C105.567 24.5226 105.837 24.6572 106.045 24.7605C106.333 24.904 106.5 24.987 106.34 25.8829C104.001 26.1347 100.768 26.2495 98.4837 25.8311C98.2862 24.9918 98.3999 24.9251 98.7214 24.7368C98.8609 24.6551 99.0395 24.5505 99.2487 24.3499C99.2312 23.5839 98.833 22.5236 98.4196 21.4225C97.7897 19.7453 97.1244 17.9735 97.715 17.0034C98.2013 16.2011 98.7473 15.491 99.255 14.8308Z" fill="#B8B8BF"/>
<path d="M119.665 26.35H120.654C120.654 24.8726 120.474 24.8206 120.269 24.7616C120.1 24.7131 119.915 24.6598 119.801 23.8061C119.643 22.5916 119.698 11.4236 119.933 10.846C120.146 10.316 120.343 10.2459 120.5 10.1897C120.73 10.1079 120.877 10.0553 120.875 8.66493C116.789 8.59459 114.192 12.7752 113.957 16.8965C113.813 19.3737 114.295 21.4881 115.387 23.1692C116.488 24.8556 117.544 25.3287 118.529 25.7701L118.529 25.7702C118.919 25.9452 119.298 26.1152 119.665 26.3537V26.35Z" fill="#B8B8BF"/>
<path d="M22.859 10.6546C22.6674 10.5601 22.4169 10.4365 22.0896 10.1752L22.1227 9.01247C25.9294 8.56072 28.8717 10.5159 28.8717 14.1743C28.8533 18.266 26.0654 19.451 22.1043 19.4954C22.1043 18.025 22.3521 17.9971 22.6375 17.965C23.0256 17.9213 23.4835 17.8697 23.4835 14.1743C23.4835 10.9628 23.4686 10.9554 22.859 10.6546Z" fill="#B8B8BF"/>
<path d="M121.713 26.3498H122.618C122.699 26.316 122.879 26.2608 123.125 26.1855C124.304 25.8244 126.992 25.0014 127.399 23.8614C127.611 23.2694 127.547 22.4893 127.48 21.6916C127.393 20.6333 127.302 19.5439 127.852 18.8218C127.933 18.7106 128.012 18.6219 128.08 18.5452C128.321 18.2746 128.43 18.1523 128.043 17.7109C127.44 17.0444 121.978 17.4073 121.316 17.5665L121.261 18.4219C121.524 18.6645 121.732 18.7287 121.961 18.7993C122.159 18.8602 122.372 18.9257 122.648 19.1143C122.754 19.2772 122.975 23.6171 122.545 24.4021C122.335 24.7848 122.164 24.8344 122.032 24.8726C121.817 24.9348 121.707 24.9665 121.71 26.3646L121.713 26.3498Z" fill="#B8B8BF"/>
<path d="M39.9422 26.3496H39.4457C39.4386 24.7345 39.4513 24.7317 39.8832 24.6371C40.1217 24.5848 40.488 24.5045 41.0493 24.1093C41.5596 23.7593 41.946 23.2548 42.1526 22.6689C42.594 21.4729 42.5131 14.3448 42.4395 12.7118C42.3665 11.1548 41.8152 10.802 41.3296 10.4912C40.9351 10.2387 40.5839 10.0139 40.5675 9.19401C41.1817 8.94962 45.3451 8.58304 45.5952 9.44952C45.5452 10.0116 45.2602 10.1997 44.9289 10.4185C44.4068 10.7632 43.7697 11.1839 43.7562 13.2635C43.7525 13.7658 43.7643 14.4207 43.7776 15.1614C43.8302 18.0793 43.9069 22.3299 43.153 23.839C42.4517 25.2429 41.7099 25.5563 40.8645 25.9134C40.5705 26.0376 40.2639 26.1671 39.9422 26.3496Z" fill="#B8B8BF"/>
<path d="M145.425 26.0421L148.904 25.894C149.03 24.9613 148.649 24.8091 148.243 24.6469C147.831 24.4827 147.394 24.3082 147.433 23.3019C147.475 22.3778 147.877 21.1656 148.315 19.8416C149.136 17.3621 150.087 14.4908 149.051 12.3858C148.643 13.4441 148.119 15.4908 147.584 17.583C146.854 20.4321 146.103 23.3656 145.594 24.0018C145.418 24.2163 145.121 24.3664 144.833 24.5124C144.518 24.6714 144.213 24.8257 144.083 25.0534C143.568 25.9495 144.62 26.0569 145.414 26.0569L145.425 26.0421Z" fill="#B8B8BF"/>
<path d="M67.4825 25.82C66.5814 26.1681 63.5729 26.2792 62.6718 25.7497C62.5405 25.0092 62.801 24.8588 63.1624 24.6501C63.4589 24.479 63.8233 24.2686 64.0951 23.6612C64.4429 22.8816 64.4092 20.0639 64.3783 17.4752C64.3601 15.9575 64.3429 14.5185 64.4041 13.6153C65.9587 14.9705 65.8097 17.45 65.6729 19.7263C65.5828 21.2251 65.498 22.6359 65.9084 23.5798C66.1795 24.2051 66.5556 24.4092 66.874 24.5819C67.2683 24.7958 67.5741 24.9617 67.4825 25.82Z" fill="#B8B8BF"/>
<path d="M0 20.2696V26.3498H5.20058C5.20058 24.9575 5.12889 24.9352 4.74184 24.8148C4.52152 24.7462 4.19903 24.6458 3.72941 24.2428C2.4251 23.1363 2.09431 22.2114 1.69325 21.09C1.54808 20.6841 1.3937 20.2524 1.18061 19.7771C0.960528 19.7502 0.737269 19.7814 0.532829 19.8678C0.328389 19.9541 0.14982 20.0926 0.014712 20.2696H0Z" fill="#B8B8BF"/>
<path d="M122.784 10.1625C122.42 10.1186 122.13 10.0838 121.886 9.63142L121.905 8.65755C122.814 8.73218 123.575 8.95406 124.275 9.15798C124.86 9.32839 125.401 9.48625 125.95 9.53514C126.295 9.32229 126.419 9.12321 126.514 8.97093C126.67 8.72056 126.747 8.59676 127.598 8.74642C127.738 10.431 127.779 12.1226 127.719 13.812C127.719 13.87 127.72 13.9259 127.72 13.9798C127.723 14.9977 127.723 15.2771 126.616 15.2524C126.399 14.971 126.154 14.3726 125.886 13.7177C125.597 13.011 125.281 12.2385 124.943 11.7273C124.003 10.3093 123.314 10.2263 122.784 10.1625Z" fill="#B8B8BF"/>
<path d="M76.0778 18.3332C76.1177 17.5909 76.0959 16.734 76.0737 15.8649C76.0204 13.7732 75.9653 11.611 76.7656 10.8052C77.0823 10.485 77.3407 10.3796 77.535 10.3004C77.8595 10.1681 78.0046 10.109 77.9425 9.2426C76.9789 8.77233 70.708 8.54646 73.7129 10.4386C74.5183 10.9459 74.7537 11.431 74.7979 12.7159C74.8194 13.3578 74.8143 13.8898 74.8099 14.3501C74.794 16.0141 74.7871 16.7408 76.0778 18.3332Z" fill="#B8B8BF"/>
<path d="M112.754 16.1998C114.089 16.4627 113.236 18.6215 113.236 18.6215V18.64C113.208 18.6672 113.187 18.6898 113.17 18.7089C113.151 18.7291 113.137 18.7453 113.126 18.7583L113.126 18.7587C113.107 18.7811 113.096 18.7942 113.082 18.803C113.063 18.8154 113.038 18.8196 112.979 18.8296C112.931 18.8377 112.86 18.8498 112.75 18.8733L108.977 18.8955L108.868 18.8968C107.566 18.9123 107.264 18.9159 107.185 18.7838C107.161 18.7438 107.157 18.6913 107.153 18.6229C107.149 18.5585 107.143 18.48 107.119 18.3845C107.009 17.6807 107.056 16.9611 107.256 16.2776C108.307 16.1645 109.366 16.1385 110.422 16.1998H112.754Z" fill="#B8B8BF"/>
<path d="M6.83356 9.81245C6.97477 10.03 7.26615 10.194 7.62444 10.3957C8.19937 10.7193 8.9466 11.1399 9.52212 12.0342C9.81094 12.4803 9.96266 12.9564 10.0972 13.3788C10.3637 14.2149 10.5629 14.8402 11.6259 14.604C11.9164 13.6968 12.0709 9.71618 11.5376 8.90524C10.9581 8.69426 10.7849 8.91688 10.6038 9.14974C10.4193 9.38684 10.2266 9.63456 9.58832 9.44587C9.22436 9.3396 8.95444 9.23535 8.70557 9.13923C8.19997 8.94395 7.78122 8.78221 6.83724 8.70528L6.83356 9.81245Z" fill="#B8B8BF"/>
<path d="M137.974 26.0236V24.6609L137.981 24.6646C140.597 24.2753 141.138 22.9371 141.544 21.9355C141.829 21.2318 142.046 20.6943 142.869 20.7691C143.261 21.5004 143.197 23.4606 143.149 24.9267C143.135 25.3462 143.123 25.7253 143.123 26.0236H137.974Z" fill="#B8B8BF"/>
<path d="M139.147 10.7573C139.806 10.9499 140.138 11.0468 140.839 11.8896C141.105 12.2068 141.268 12.6081 141.419 12.9789C141.699 13.6688 141.937 14.2529 142.714 13.9928C143.174 13.2967 143.031 9.97888 142.865 8.96058H138.051L137.981 10.3566C138.481 10.5624 138.848 10.6698 139.147 10.7573Z" fill="#B8B8BF"/>
<path d="M48.6594 13.4349C48.5215 14.3499 48.4192 15.0283 47.2024 14.7671C46.8383 13.6488 46.9376 10.5125 47.0369 8.97577L50.222 9.0239C50.3303 10.3784 50.1069 10.5933 49.7621 10.9248C49.5215 11.1562 49.2219 11.4443 48.9347 12.2158C48.7809 12.6293 48.717 13.0527 48.6594 13.4349Z" fill="#B8B8BF"/>
<path d="M60.8255 14.7445C61.1307 13.8077 61.1271 10.1381 60.9432 8.96058H57.8206C57.6651 10.3357 57.9107 10.5713 58.2738 10.9196C58.5119 11.1481 58.8007 11.4252 59.0601 12.1043C59.224 12.5335 59.2967 12.979 59.3624 13.3816C59.5177 14.3337 59.6338 15.0457 60.8255 14.7334V14.7445Z" fill="#B8B8BF"/>
<path d="M137.937 17.9921V16.7183H137.944C138.183 16.495 138.371 16.3672 138.53 16.2588C138.82 16.0614 139.016 15.9281 139.253 15.4C139.408 15.0653 139.471 14.8021 139.519 14.5975C139.634 14.1117 139.671 13.9559 140.68 13.9559C140.983 16.2053 140.97 18.4863 140.644 20.7322C139.688 20.7269 139.641 20.5366 139.52 20.0399C139.472 19.841 139.411 19.593 139.276 19.2881C139.011 18.691 138.763 18.5311 138.327 18.2508C138.211 18.1765 138.082 18.0937 137.937 17.9921Z" fill="#B8B8BF"/>
</svg>
