<svg width="214" height="43" viewBox="0 0 214 43" fill="none" xmlns="http://www.w3.org/2000/svg">
<path d="M7.41275 32.1203H8.59558C9.07676 31.8899 9.51271 31.7595 9.94702 31.6296C10.5763 31.4413 11.2022 31.2541 11.9573 30.7651C15.3057 28.5966 15.8972 23.6199 13.527 20.9894C12.1121 19.4303 11.0148 18.9524 9.30112 18.206L9.30019 18.2056L9.29976 18.2054C8.8111 17.9926 8.27231 17.7579 7.66177 17.4701C2.66767 15.157 6.42749 12.6859 6.98242 12.3211L6.98352 12.3204C7.02381 12.2939 7.0469 12.2787 7.04812 12.2757V10.8627C-0.920464 11.4581 -1.04053 19.0298 1.71201 22.118C2.66992 23.2029 4.29274 23.9326 5.94167 24.674C6.58912 24.9652 7.24059 25.2581 7.85742 25.5751C10.5788 26.9748 10.1786 29.1299 8.88018 29.8808C8.47083 30.1126 8.17525 30.2039 7.96185 30.2699C7.42649 30.4353 7.4083 30.4409 7.4083 32.1025L7.41275 32.1203Z" fill="#E0B787"/>
<path d="M182.459 19.792C181.618 16.514 180.696 12.9179 181.263 11.4048L181.259 11.4226C182.223 11.0493 186.025 11.1826 187.253 11.3337C187.944 13.6039 188.498 16.1535 189.034 18.6199L189.035 18.621C189.278 19.7411 189.518 20.8441 189.765 21.8959C189.786 21.9907 189.821 22.1485 189.867 22.3554L189.867 22.3566L189.867 22.3573C190.25 24.091 191.391 29.2586 191.744 29.7387C191.978 30.051 192.229 30.1662 192.438 30.2624C192.8 30.429 193.039 30.5387 192.856 31.5161C191.522 31.9382 184.611 32.0137 183.517 31.4272C183.37 30.4516 183.569 30.3518 183.957 30.1568C184.12 30.0747 184.317 29.9758 184.536 29.7875C184.517 28.7482 184.347 27.717 184.033 26.726H179.916L180.285 24.9486L183.553 24.9219C183.463 23.705 182.977 21.8087 182.459 19.792Z" fill="#E0B787"/>
<path d="M76.6152 13.064C76.3814 12.9659 76.111 12.8524 75.7193 12.5333C75.7519 11.2265 76.3074 11.2367 77.4132 11.2569L77.4172 11.257C77.4815 11.2582 77.5477 11.2594 77.6157 11.2603C77.701 11.2616 77.7893 11.2624 77.8804 11.2624L83.9858 11.2891C84.6069 11.9873 87.2415 16.7157 88.6054 19.1634C88.8819 19.6596 89.1061 20.0621 89.2508 20.3183C89.9183 21.5024 90.4314 22.3431 90.8247 22.9876C91.4039 23.9366 91.7234 24.46 91.8939 25.028C92.1036 25.7267 92.088 26.4929 92.0531 28.2014C92.0352 29.0806 92.0122 30.2094 92.0122 31.7069L87.8501 31.7469C87.4326 30.7181 86.6251 29.3771 85.8876 28.1522C85.5803 27.6419 85.285 27.1515 85.0353 26.7124L77.8493 14.2707C77.2852 13.345 76.9996 13.2252 76.6152 13.064Z" fill="#E0B787"/>
<path d="M97.6863 28.4145V14.6574C97.6863 13.1442 97.5486 13.1099 97.2071 13.0248C97.0241 12.9792 96.7825 12.919 96.4723 12.609C95.5073 11.6047 96.7569 11.2404 97.7307 11.2404C98.0904 11.2404 98.5906 11.2262 99.1694 11.2097C101.374 11.1471 104.718 11.052 105.775 11.587C105.819 12.6666 105.667 12.7106 105.297 12.8182C105.065 12.8856 104.748 12.9778 104.339 13.3644L104.423 29.4942C104.72 29.9898 105.043 30.0993 105.299 30.186C105.655 30.3069 105.881 30.3836 105.726 31.4005C105.282 31.6432 104.782 31.7643 104.276 31.7515C103.986 31.7515 103.54 31.7681 103.003 31.7881C100.09 31.8964 94.4942 32.1045 96.5479 30.3074C96.8354 30.0539 97.0574 29.9896 97.2258 29.9408C97.5651 29.8425 97.6863 29.8074 97.6863 28.4145Z" fill="#E0B787"/>
<path d="M108.665 11.6136C108.619 12.7618 108.936 12.8116 109.286 12.8665C109.682 12.9287 110.119 12.9975 110.119 14.6752V28.4145C110.119 29.8248 109.929 29.8726 109.589 29.958C109.394 30.0072 109.148 30.0688 108.861 30.4096C107.829 31.6449 109.595 31.7427 110.382 31.7427C110.983 31.7427 111.566 31.7472 112.137 31.7517H112.139C114.154 31.7674 116.028 31.782 118.11 31.5916C118.327 30.308 118.011 30.2381 117.629 30.1536C117.228 30.0648 116.754 29.9599 116.754 28.4056V14.6752C116.754 12.9766 117.191 12.9176 117.587 12.8642C117.937 12.8171 118.254 12.7743 118.208 11.6092C117.199 11.1204 109.448 10.876 108.665 11.6092V11.6136Z" fill="#E0B787"/>
<path d="M194.292 11.4834L194.292 11.467L194.279 11.4848L194.292 11.4834Z" fill="#E0B787"/>
<path d="M194.292 11.4834C194.273 12.6421 194.629 12.7757 194.995 12.9128C195.37 13.0535 195.755 13.1979 195.755 14.4575C195.755 15.6131 195.766 16.9641 195.778 18.3995L195.778 18.4043V18.4075C195.811 22.3128 195.848 26.8414 195.679 29.7608C195.404 29.9306 195.163 30.0206 194.963 30.0952C194.445 30.2883 194.201 30.3794 194.345 31.4849C195.366 31.8607 198.851 31.8041 201.081 31.7678L201.084 31.7678C201.621 31.7591 202.086 31.7515 202.425 31.7515C202.473 31.7515 202.522 31.7519 202.573 31.7522C203.292 31.757 204.263 31.7634 204.159 30.8628C204.098 30.3444 203.684 30.1846 203.233 30.0107C202.992 29.9178 202.741 29.8209 202.527 29.6631C202.251 29.2422 202.313 24.8701 202.375 20.4401C202.429 16.5918 202.484 12.6999 202.318 11.3159C199.643 11.1413 196.957 11.1974 194.292 11.4834Z" fill="#E0B787"/>
<path d="M17.3868 11.5161L17.3864 11.5393L17.3801 11.543L17.3734 11.5472L17.3868 11.5161Z" fill="#E0B787"/>
<path d="M17.3864 11.5393C17.3678 12.6973 17.6964 12.7922 18.0459 12.893C18.4307 13.0041 18.8409 13.1225 18.8409 14.6754C18.8409 15.8054 18.8515 17.1211 18.8629 18.5186C18.8942 22.3803 18.9306 26.8664 18.7608 29.7833C18.4928 29.9426 18.2585 30.0294 18.0631 30.1019C17.5387 30.2963 17.294 30.387 17.4268 31.494C18.4565 31.8763 21.9066 31.8191 24.1438 31.782H24.155C24.6956 31.773 25.1648 31.7651 25.511 31.7651L25.5511 31.7652L25.5843 31.7653L25.6476 31.7656L25.6513 31.7657C26.3679 31.77 27.3494 31.7758 27.2452 30.8764C27.1844 30.3499 26.7843 30.1982 26.3346 30.0276C26.0935 29.9363 25.8382 29.8395 25.6133 29.6767C25.3344 29.2598 25.3967 24.8704 25.4597 20.4295C25.5142 16.5861 25.5693 12.7042 25.4043 11.325C24.1369 11.2324 18.0452 11.1616 17.3864 11.5393Z" fill="#E0B787"/>
<path d="M66.0246 31.7824C63.866 31.8386 61.2117 31.9077 60.2846 31.4005V31.4094C60.0812 30.3212 60.3878 30.2683 60.7956 30.198C61.3235 30.1071 62.0212 29.9868 62.0011 27.5525C61.9966 27.0493 61.9891 26.392 61.9804 25.6297V25.6286C61.9297 21.1596 61.8379 13.0814 62.0545 11.2671L68.5956 11.3204C68.7729 13.2462 68.7046 16.7703 68.637 20.2586C68.5588 24.2959 68.4815 28.2854 68.7868 29.6943C69.0493 29.8561 69.3268 29.9497 69.5772 30.0341C70.1794 30.2373 70.6251 30.3877 70.3299 31.3072C70.0215 31.8145 68.9374 31.7816 68.2039 31.7594C68.1253 31.757 68.0506 31.7547 67.9814 31.7532C67.9548 31.7527 67.929 31.7522 67.904 31.752C67.8835 31.7517 67.8635 31.7516 67.8441 31.7516C67.3326 31.7484 66.7031 31.7648 66.0246 31.7824Z" fill="#E0B787"/>
<path d="M158.709 13.2306C159.034 14.497 158.998 28.0541 158.776 29.7515C158.474 29.9622 158.208 30.0628 157.992 30.1446C157.498 30.3318 157.265 30.4197 157.473 31.5023C158.629 31.8755 164.05 31.8977 165.508 31.6622V11.2977C164.309 11.2018 162.986 11.2211 161.707 11.2398C161.088 11.2488 160.48 11.2576 159.901 11.2533C159.761 11.2533 159.599 11.2439 159.426 11.2338C158.711 11.1921 157.805 11.1394 157.522 11.6976C157.142 12.4699 157.638 12.6907 158.175 12.9297C158.361 13.0125 158.552 13.0976 158.713 13.2084L158.709 13.2306Z" fill="#E0B787"/>
<path d="M46.353 32.1205H43.5293L42.5199 31.7073C39.2648 30.592 38.0687 29.3078 38.0331 25.5842C38.025 24.6449 38.0561 23.3985 38.0899 22.0429C38.1676 18.9222 38.2598 15.2233 37.9219 13.3646C37.6221 13.0863 37.3515 12.9678 37.135 12.873C36.7188 12.6907 36.5026 12.596 36.6635 11.6227C37.664 10.9517 45.0367 11.1251 46.1128 11.5161C46.1473 12.6371 45.9884 12.7001 45.607 12.8514C45.3988 12.934 45.1243 13.0429 44.7788 13.3646C44.6321 13.6401 44.3608 28.0192 44.9922 29.2412C45.2002 29.6392 45.3746 29.7468 45.6595 29.9226C45.734 29.9686 45.8161 30.0193 45.9083 30.081C46.0675 30.1628 46.2167 30.2627 46.353 30.3787V32.1205Z" fill="#E0B787"/>
<path d="M208.028 32.1203H214V28.6632C213.258 27.8982 213.085 28.062 212.793 28.3374C212.595 28.5242 212.342 28.7624 211.821 28.7965C211.605 28.1098 211.645 27.364 211.685 26.6185C211.742 25.5694 211.798 24.5208 211.141 23.6376C210.32 22.5418 209.664 22.3834 208.82 22.1797C208.374 22.0721 207.875 21.9518 207.272 21.6736C207.665 21.4822 208.027 21.3307 208.366 21.189C209.355 20.7748 210.143 20.4451 210.918 19.4519C211.808 18.3188 212.035 16.3414 211.514 14.764C210.549 11.8224 207.259 11.1603 203.563 11.2803V12.9333C205.322 13.5816 205.3 14.3247 205.251 16.0289V16.0297C205.241 16.346 205.231 16.6954 205.231 17.0835C205.231 17.2359 205.234 17.426 205.238 17.6369C205.252 18.4283 205.271 19.5114 205.138 19.9851C204.94 20.6951 204.714 20.7732 204.301 20.9154C204.11 20.9815 203.878 21.0614 203.59 21.2248C203.561 22.7938 203.939 22.9258 204.345 23.0674C204.689 23.1877 205.053 23.3149 205.204 24.3353C205.334 25.1847 205.301 26.0115 205.27 26.8024V26.8034C205.194 28.7303 205.127 30.4442 207.428 31.7515L207.872 32.0225C207.891 31.991 207.937 32.0354 207.979 32.0765C207.997 32.0935 208.014 32.1099 208.028 32.1203Z" fill="#E0B787"/>
<path d="M120.003 18.2974C121.316 16.603 122.416 15.1827 122.143 13.5417L122.139 13.515C121.9 13.3225 121.639 13.1731 121.395 13.034C120.954 12.7815 120.571 12.563 120.494 12.182C120.296 11.2329 121.245 11.2343 122.071 11.2354L122.157 11.2355C122.602 11.2355 123.097 11.2162 123.603 11.1964L123.604 11.1963C125.56 11.1198 127.689 11.0365 127.813 12.0353C127.893 12.6349 127.59 12.773 127.006 13.0392C126.296 13.363 125.17 13.8763 123.811 15.639C123.675 15.8148 123.546 15.9647 123.429 16.1005C122.883 16.7367 122.602 17.0637 123.082 18.3051L127.324 29.3383C127.635 29.9276 127.962 30.0891 128.212 30.2131C128.561 30.3853 128.763 30.4849 128.569 31.56C125.741 31.8622 121.832 31.9999 119.071 31.4978C118.832 30.4907 118.969 30.4107 119.358 30.1847C119.527 30.0866 119.743 29.9611 119.996 29.7204C119.974 28.8012 119.493 27.5288 118.993 26.2075C118.232 24.1948 117.427 22.0687 118.141 20.9045C118.729 19.9419 119.389 19.0897 120.003 18.2974Z" fill="#E0B787"/>
<path d="M144.68 32.1206H145.876C145.876 30.3476 145.657 30.2852 145.41 30.2144C145.206 30.1562 144.982 30.0923 144.844 29.0679C144.653 27.6104 144.72 14.2088 145.004 13.5157C145.262 12.8797 145.499 12.7956 145.69 12.7281C145.967 12.63 146.145 12.5669 146.143 10.8984C141.202 10.814 138.063 15.8307 137.778 20.7763C137.605 23.749 138.187 26.2863 139.508 28.3036C140.839 30.3272 142.115 30.895 143.306 31.4246L143.306 31.4248C143.778 31.6347 144.237 31.8387 144.68 32.125V32.1206Z" fill="#E0B787"/>
<path d="M27.6375 13.2861C27.4057 13.1726 27.1029 13.0243 26.7072 12.7107L26.7472 11.3155C31.3496 10.7734 34.907 13.1195 34.907 17.5097C34.8848 22.4198 31.5142 23.8417 26.725 23.895C26.725 22.1305 27.0245 22.097 27.3697 22.0585C27.8389 22.006 28.3925 21.9442 28.3925 17.5097C28.3925 13.6558 28.3745 13.647 27.6375 13.2861Z" fill="#E0B787"/>
<path d="M147.156 32.1203H148.25C148.348 32.0797 148.566 32.0134 148.863 31.9232C150.288 31.4898 153.538 30.5023 154.031 29.1342C154.287 28.4238 154.209 27.4877 154.129 26.5305C154.023 25.2604 153.914 23.9532 154.578 23.0867C154.676 22.9532 154.772 22.8468 154.854 22.7547C155.145 22.43 155.277 22.2833 154.809 21.7536C154.08 20.9538 147.477 21.3892 146.676 21.5803L146.609 22.6068C146.927 22.8979 147.179 22.975 147.456 23.0597C147.695 23.1327 147.952 23.2114 148.286 23.4377C148.415 23.6332 148.682 28.841 148.161 29.783C147.908 30.2423 147.701 30.3018 147.541 30.3476C147.281 30.4223 147.149 30.4603 147.152 32.138L147.156 32.1203Z" fill="#E0B787"/>
<path d="M48.2917 32.12H47.6914C47.6828 30.1819 47.6982 30.1786 48.2204 30.065C48.5087 30.0023 48.9515 29.9059 49.6302 29.4317C50.2472 29.0116 50.7144 28.4062 50.9642 27.7032C51.4978 26.2679 51.4 17.7142 51.3111 15.7546C51.2227 13.8863 50.5563 13.4629 49.9691 13.0899C49.4922 12.7869 49.0676 12.5172 49.0477 11.5333C49.7903 11.2401 54.824 10.8002 55.1264 11.8399C55.0659 12.5144 54.7214 12.7402 54.3208 13.0027C53.6896 13.4164 52.9193 13.9212 52.903 16.4167C52.8985 17.0195 52.9128 17.8053 52.9289 18.6942C52.9925 22.1957 53.0852 27.2964 52.1737 29.1073C51.3258 30.792 50.4289 31.1681 49.4068 31.5966C49.0513 31.7456 48.6807 31.901 48.2917 32.12Z" fill="#E0B787"/>
<path d="M175.825 31.751L180.031 31.5733C180.184 30.4541 179.723 30.2715 179.231 30.0768C178.734 29.8797 178.206 29.6703 178.253 28.4628C178.304 27.3538 178.789 25.8992 179.319 24.3105C180.312 21.3351 181.461 17.8894 180.209 15.3634C179.716 16.6334 179.082 19.0895 178.435 21.6001C177.553 25.019 176.645 28.5392 176.029 29.3027C175.816 29.5601 175.458 29.7401 175.108 29.9154C174.728 30.1062 174.359 30.2913 174.202 30.5646C173.579 31.6399 174.851 31.7688 175.811 31.7688L175.825 31.751Z" fill="#E0B787"/>
<path d="M81.589 31.4846C80.4996 31.9022 76.8621 32.0355 75.7727 31.4001C75.6139 30.5115 75.9289 30.3311 76.3659 30.0807C76.7244 29.8753 77.1649 29.6228 77.4936 28.894C77.914 27.9584 77.8733 24.5771 77.8359 21.4708C77.8139 19.6495 77.7931 17.9228 77.8671 16.8388C79.7467 18.4652 79.5665 21.4405 79.4011 24.1721C79.2922 25.9707 79.1897 27.6636 79.6858 28.7962C80.0136 29.5467 80.4684 29.7915 80.8533 29.9988C81.33 30.2555 81.6997 30.4546 81.589 31.4846Z" fill="#E0B787"/>
<path d="M0 24.824V32.1202H6.28771C6.28771 30.4496 6.20103 30.4228 5.73307 30.2782C5.4667 30.1959 5.07679 30.0754 4.50901 29.5919C2.93204 28.264 2.53211 27.1542 2.04721 25.8085C1.87169 25.3214 1.68504 24.8034 1.42741 24.233C1.16132 24.2007 0.891388 24.2382 0.644211 24.3418C0.397035 24.4455 0.181139 24.6117 0.0177874 24.824H0Z" fill="#E0B787"/>
<path d="M148.451 12.6955C148.01 12.6428 147.661 12.601 147.365 12.0582L147.388 10.8896C148.487 10.9791 149.408 11.2454 150.253 11.4901C150.96 11.6946 151.615 11.884 152.279 11.9427C152.696 11.6873 152.846 11.4484 152.961 11.2656C153.149 10.9652 153.243 10.8166 154.271 10.9962C154.441 13.0177 154.49 15.0476 154.418 17.0749C154.418 17.1446 154.418 17.2116 154.418 17.2762C154.422 18.4977 154.423 18.833 153.084 18.8034C152.821 18.4657 152.525 17.7477 152.201 16.9617C151.851 16.1137 151.469 15.1867 151.061 14.5732C149.925 12.8716 149.092 12.7721 148.451 12.6955Z" fill="#E0B787"/>
<path d="M91.981 22.5004C92.0293 21.6096 92.0029 20.5813 91.9761 19.5384C91.9117 17.0284 91.845 14.4337 92.8126 13.4668C93.1955 13.0825 93.508 12.956 93.7428 12.861C94.1352 12.7023 94.3107 12.6313 94.2356 11.5916C93.0705 11.0273 85.4888 10.7563 89.1218 13.0269C90.0956 13.6356 90.3802 14.2177 90.4336 15.7596C90.4596 16.5299 90.4535 17.1683 90.4482 17.7207C90.429 19.7174 90.4206 20.5895 91.981 22.5004Z" fill="#E0B787"/>
<path d="M136.324 19.9403C137.938 20.2558 136.907 22.8463 136.907 22.8463V22.8686C136.874 22.9011 136.848 22.9283 136.827 22.9512C136.804 22.9755 136.788 22.9948 136.774 23.0104L136.774 23.011C136.751 23.0378 136.737 23.0535 136.721 23.0641C136.697 23.079 136.668 23.084 136.596 23.096C136.538 23.1058 136.452 23.1202 136.32 23.1485L131.757 23.1752L131.626 23.1767C130.052 23.1953 129.686 23.1996 129.59 23.0411C129.561 22.9931 129.557 22.9301 129.552 22.848C129.547 22.7707 129.541 22.6765 129.512 22.562C129.379 21.7174 129.435 20.8538 129.676 20.0336C130.948 19.8979 132.228 19.8667 133.505 19.9403H136.324Z" fill="#E0B787"/>
<path d="M8.26205 12.2755C8.43277 12.5365 8.78506 12.7333 9.21825 12.9753C9.91337 13.3637 10.8168 13.8684 11.5126 14.9415C11.8618 15.4769 12.0452 16.0482 12.208 16.555C12.5301 17.5584 12.771 18.3087 14.0562 18.0253C14.4075 16.9367 14.5942 12.1599 13.9494 11.1868C13.2488 10.9336 13.0394 11.2008 12.8204 11.4802C12.5974 11.7647 12.3644 12.062 11.5927 11.8356C11.1526 11.708 10.8263 11.5829 10.5254 11.4676C9.91409 11.2333 9.40781 11.0392 8.26649 10.9469L8.26205 12.2755Z" fill="#E0B787"/>
<path d="M166.815 31.7288V30.0936L166.824 30.098C169.987 29.6309 170.642 28.025 171.132 26.8232C171.476 25.9786 171.739 25.3336 172.734 25.4235C173.208 26.301 173.13 28.6532 173.072 30.4125C173.056 30.916 173.041 31.3709 173.041 31.7288H166.815Z" fill="#E0B787"/>
<path d="M168.235 13.4092C169.031 13.6404 169.433 13.7567 170.28 14.768C170.601 15.1486 170.799 15.6303 170.981 16.0752C171.32 16.903 171.607 17.604 172.547 17.2919C173.103 16.4565 172.93 12.4752 172.73 11.2532H166.909L166.824 12.9284C167.429 13.1754 167.872 13.3042 168.235 13.4092Z" fill="#E0B787"/>
<path d="M58.8311 16.6224C58.6644 17.7204 58.5407 18.5345 57.0696 18.221C56.6294 16.8791 56.7494 13.1155 56.8695 11.2714L60.7204 11.3292C60.8514 12.9546 60.5812 13.2125 60.1643 13.6103C59.8735 13.8879 59.5112 14.2337 59.164 15.1595C58.978 15.6557 58.9008 16.1638 58.8311 16.6224Z" fill="#E0B787"/>
<path d="M73.5404 18.1939C73.9095 17.0697 73.905 12.6662 73.6827 11.2532H69.9074C69.7194 12.9034 70.0163 13.1861 70.4553 13.604C70.7433 13.8783 71.0924 14.2107 71.406 15.0257C71.6042 15.5407 71.692 16.0754 71.7714 16.5585C71.9592 17.701 72.0996 18.5554 73.5404 18.1806V18.1939Z" fill="#E0B787"/>
<path d="M166.771 22.091V20.5624H166.78C167.069 20.2945 167.296 20.1412 167.488 20.011C167.839 19.7742 168.076 19.6142 168.363 18.9805C168.55 18.5788 168.626 18.263 168.684 18.0175C168.823 17.4346 168.868 17.2476 170.088 17.2476C170.454 19.9469 170.439 22.684 170.044 25.3792C168.888 25.3728 168.832 25.1444 168.685 24.5484C168.627 24.3097 168.554 24.0121 168.39 23.6462C168.07 22.9297 167.769 22.7379 167.242 22.4015C167.103 22.3123 166.947 22.213 166.771 22.091Z" fill="#E0B787"/>
</svg>
