<svg width="14" height="15" viewBox="0 0 14 15" fill="none" xmlns="http://www.w3.org/2000/svg">
<g clip-path="url(#clip0_605_761)">
<path fill-rule="evenodd" clip-rule="evenodd" d="M7.82853 1.63111C7.78367 1.62497 7.7304 1.62087 7.67292 1.61678C7.4374 1.60039 6.94743 1.56558 6.97617 1.07204C6.98878 0.858379 7.08692 0.5 7.60423 0.5C7.66161 0.5 7.7177 0.5038 7.76685 0.507129L7.77246 0.507509C7.77624 0.50775 7.77999 0.507992 7.78372 0.508231C7.82211 0.510701 7.85738 0.51297 7.88741 0.51297C7.9003 0.513178 7.91318 0.512493 7.92596 0.510922C7.93858 0.508874 7.9512 0.508874 7.96522 0.508874C11.2149 0.615364 14.0313 3.48854 13.9907 6.65593C13.9907 6.69598 13.9925 6.74076 13.9944 6.78862L13.9949 6.79928C14.0054 7.00953 14.0166 7.27098 13.8442 7.44641C13.7446 7.54744 13.6065 7.59864 13.432 7.59864H13.4152C12.8603 7.58841 12.8516 7.08522 12.8474 6.84272L12.8474 6.84229C12.8467 6.77471 12.8453 6.71054 12.8383 6.65798C12.4366 3.56022 10.9849 2.10417 7.82853 1.63111ZM12.485 10.5087C12.5514 10.5605 12.6184 10.6114 12.6862 10.6616C13.1937 11.0391 13.8259 11.5094 13.4797 12.461C13.085 13.5471 11.7988 14.5 10.7277 14.5H10.7095C10.6903 14.4999 10.6712 14.4973 10.6527 14.4925C10.619 14.4836 10.5728 14.4734 10.5195 14.4618C10.3618 14.4276 10.1466 14.3805 9.94122 14.2945C7.66451 13.3395 5.69902 12.0692 4.10014 10.5176C2.46621 8.93249 1.17084 7.01158 0.249076 4.80874C-0.0691584 4.04693 -0.0831774 3.31447 0.211225 2.69055C0.516141 2.04547 1.12457 1.55671 1.97343 1.27888C2.28993 1.16845 2.63613 1.16941 2.95197 1.28161C3.69078 1.54578 5.44387 3.87423 5.48733 4.64764C5.52448 5.32959 4.98685 5.68524 4.69735 5.87637C4.18846 6.21359 4.09453 6.62726 4.38403 7.26074C4.98264 8.5707 6.02987 9.56324 7.49488 10.2104C7.64924 10.2842 7.81789 10.3253 7.98975 10.3312C8.23719 10.3312 8.43836 10.2124 8.60379 9.96804C8.9781 9.41716 9.43092 9.13728 9.95103 9.13728C10.3366 9.13728 10.7445 9.28814 11.1987 9.59874L11.4195 9.74891L11.4499 9.76961C11.7945 10.0041 12.15 10.2461 12.485 10.5087ZM7.44791 4.52545C7.58179 4.14728 7.96382 4.13772 8.14677 4.13362C8.63323 4.12202 9.16736 4.36913 9.61037 4.80738C10.0527 5.24426 10.312 5.79309 10.3064 6.27639C10.3218 6.73989 10.1487 6.99588 9.79121 7.03684C9.76889 7.03953 9.74642 7.0409 9.72392 7.04093C9.42742 7.04093 9.1954 6.80679 9.16105 6.4723C9.08745 5.7535 8.71805 5.36713 7.99957 5.25518C7.8019 5.22378 7.5839 5.16644 7.47034 4.98213C7.39254 4.85584 7.38483 4.70294 7.44791 4.52545ZM8.26186 2.34101C10.4005 2.59153 12.1269 4.40118 12.1101 6.37533L12.1094 6.37465C12.1096 6.38377 12.1091 6.3929 12.108 6.40196C12.1025 6.4375 12.1044 6.49017 12.1065 6.54638L12.1066 6.5494L12.1066 6.54958C12.1136 6.75238 12.1282 7.17403 11.6545 7.24432C11.6068 7.25114 11.5606 7.25456 11.5185 7.25456C11.01 7.25456 10.981 6.79512 10.967 6.57271L10.9669 6.57125C10.9665 6.56622 10.9662 6.56122 10.9658 6.55624C10.962 6.50246 10.9585 6.45207 10.9514 6.41083C10.6353 4.55477 9.98832 3.8974 8.0663 3.47895C8.02196 3.46942 7.96973 3.46226 7.9147 3.45471L7.90227 3.45301C7.69689 3.4257 7.44104 3.39157 7.29595 3.19975C7.20973 3.08575 7.18099 2.93899 7.21113 2.76492C7.24197 2.58675 7.35903 2.2864 7.79783 2.2864C7.90725 2.28907 8.01627 2.30049 8.12378 2.32053C8.16961 2.32857 8.21565 2.33539 8.26186 2.34101Z" fill="white"/>
</g>
<defs>
<clipPath id="clip0_605_761">
<rect width="14" height="14" fill="white" transform="translate(0 0.5)"/>
</clipPath>
</defs>
</svg>
