<svg width="36" height="38" viewBox="0 0 36 38" fill="none" xmlns="http://www.w3.org/2000/svg">
<path fill-rule="evenodd" clip-rule="evenodd" d="M9.12774 7.5521C9.1153 7.54971 9.11152 7.54899 9.06129 7.49141C9.08106 7.33971 9.14544 7.2577 9.21113 7.17402C9.24074 7.13629 9.27063 7.09822 9.29681 7.05326C9.33977 6.97915 9.36046 6.84276 9.38568 6.67638C9.43622 6.34307 9.50501 5.88942 9.80771 5.57508C10.2838 5.08099 11.987 4.78747 12.2221 6.3317C12.282 6.72581 12.2154 6.93495 12.1322 7.19626C12.1073 7.27443 12.0809 7.35728 12.056 7.45114C12.01 7.62399 12.0626 8.19635 12.4823 8.28685C12.67 8.32762 12.6958 8.29562 12.7291 8.25422C12.7598 8.21612 12.7969 8.17006 12.9725 8.16537C13.0824 8.16242 13.2069 8.17695 13.3297 8.19127C13.4106 8.20072 13.4908 8.21008 13.5657 8.21429C13.574 8.25478 13.5803 8.2879 13.5854 8.31524C13.5991 8.38752 13.6051 8.4195 13.6221 8.44102C13.6356 8.45811 13.656 8.46859 13.6926 8.48741C13.7196 8.50128 13.7554 8.51968 13.8037 8.54857C13.8868 8.59863 13.9313 8.64265 13.9756 8.68657C14.0144 8.72493 14.0531 8.76322 14.1173 8.8054C14.1959 8.85728 14.2392 8.87527 14.2694 8.88784C14.3228 8.91005 14.3356 8.91536 14.4303 9.0606C14.5129 9.17268 14.5849 9.2937 14.6453 9.42179L14.8514 10.3953C14.8613 10.4572 14.877 10.507 14.8976 10.5723C14.9374 10.6988 14.9956 10.8833 15.065 11.3264C15.0873 11.4683 15.1129 11.6138 15.1387 11.7596C15.1729 11.9537 15.2074 12.1489 15.2341 12.3374C15.2529 12.4699 15.2601 12.602 15.2673 12.7339C15.2795 12.9558 15.2917 13.1769 15.3586 13.3973C15.466 13.751 15.4161 13.8754 15.3652 14.0023C15.3262 14.0998 15.2865 14.1988 15.3171 14.4042L15.3255 14.4601C15.3875 14.872 15.404 14.9812 15.0339 15.1242C15.0476 15.1761 15.0635 15.2264 15.0793 15.2764C15.1402 15.4691 15.1992 15.656 15.1251 15.902C15.0913 16.0104 15.0277 16.0829 14.9674 16.1518C14.8849 16.246 14.8084 16.3334 14.8225 16.4964C14.8304 16.5886 14.8701 16.6643 14.915 16.7498C14.9722 16.8586 15.0377 16.9835 15.0568 17.1788C15.072 17.4587 15.0543 17.7396 15.0042 18.0145C14.8716 18.9772 14.6121 19.5966 14.3861 20.136C13.9879 21.0866 13.6937 21.7887 14.3821 23.6843C14.7822 24.7986 14.6804 25.3137 14.6184 25.628C14.5943 25.7499 14.5761 25.8417 14.5956 25.9264C14.6198 26.0319 14.6505 26.0689 14.6747 26.0981C14.72 26.1528 14.7423 26.1798 14.6557 26.5787C14.7011 26.6128 14.7355 26.6266 14.77 26.6405C14.8081 26.6559 14.8463 26.6712 14.8996 26.7141C14.964 26.777 15.0224 26.8469 15.0739 26.9228C15.2066 27.1019 15.2068 27.2025 15.2071 27.3632C15.2076 27.586 15.2082 27.9242 15.5618 28.7467C15.6717 29.0046 15.7944 29.196 15.91 29.3764C16.1662 29.7763 16.388 30.1224 16.3604 31.0214C16.3437 31.5318 15.806 31.6001 15.4899 31.6402L15.4706 31.6427C15.1293 31.6866 14.7706 31.7566 14.4289 31.8233L14.2553 31.8571C13.4937 32.0039 12.3933 32.2037 11.64 31.9835C11.5536 31.6238 11.577 31.5988 11.7223 31.4442L11.7386 31.4268L11.7645 31.3989C11.9223 31.2276 11.9508 31.2172 12.1346 31.1506C12.1633 31.1402 12.1958 31.1284 12.2332 31.1144C12.9512 30.8472 13.0474 30.6705 13.1701 30.4451C13.2313 30.3327 13.299 30.2082 13.4537 30.0544C13.5 30.0086 13.5351 29.9771 13.5626 29.9523C13.5969 29.9215 13.6196 29.9011 13.6376 29.8767C13.6726 29.8293 13.6904 29.7666 13.7428 29.5823L13.7451 29.5742C13.8882 29.0693 13.8256 28.8681 13.7164 28.5168C13.6954 28.4495 13.6727 28.3765 13.6495 28.295C12.9758 28.2654 12.9659 28.069 12.9302 27.3606L12.928 27.3166C12.8686 27.2772 12.7984 27.2521 12.727 27.2267C12.6299 27.1921 12.5307 27.1567 12.4534 27.0834C12.1241 26.7728 11.7729 25.7483 11.4704 24.8661C11.2941 24.3518 11.1344 23.8858 11.0052 23.6378C10.7296 23.9314 10.6999 24.1824 10.6754 24.3894C10.6624 24.4992 10.6508 24.5967 10.6048 24.6814C10.5654 24.752 10.5361 24.7718 10.5142 24.7866C10.4785 24.8106 10.463 24.8211 10.4565 25.0174C10.4545 25.08 10.4514 25.1415 10.4484 25.202C10.4361 25.4471 10.4245 25.6782 10.484 25.924C10.5129 26.0451 10.543 26.1561 10.5728 26.2662C10.6086 26.3985 10.644 26.5294 10.6768 26.6749C10.7359 26.9385 10.7466 27.1859 10.757 27.4258C10.771 27.7483 10.7843 28.0572 10.914 28.3732C10.9401 28.4369 10.9664 28.4985 10.9922 28.5591C11.1686 28.9736 11.3235 29.3374 11.2588 29.9321C11.0334 30.0846 10.6775 30.1017 10.3609 30.1017C10.0556 30.1027 9.66576 30.183 9.25783 30.267C8.64824 30.3925 7.99816 30.5264 7.52906 30.4165C7.20576 30.3406 7.19316 29.8914 7.44527 29.7332C7.55761 29.6624 7.70806 29.5992 7.85964 29.5356C7.97317 29.4879 8.0874 29.44 8.18678 29.3883C8.53603 29.2065 9.17521 28.6733 9.32351 28.3398C9.26987 28.2155 9.16672 28.0803 9.06584 27.9481C9.01054 27.8757 8.9559 27.8041 8.91049 27.7357C8.76353 27.5337 8.65212 27.3034 8.582 27.0565C8.5535 26.9427 8.52407 26.8265 8.49414 26.7084C8.25 25.7447 7.97328 24.6524 7.90723 23.6973C7.85458 22.9489 7.90204 22.5526 8.15119 21.9485C8.37735 21.3949 9.49628 19.0859 9.82032 18.6228C9.94892 18.4404 10.0649 18.3426 10.1597 18.2628C10.2102 18.2202 10.2548 18.1826 10.2919 18.1401C10.3768 18.0424 10.4064 17.9433 10.4351 17.847C10.4718 17.7239 10.5071 17.6053 10.6553 17.5C10.7004 17.468 10.7324 17.4472 10.7552 17.4324C10.7895 17.4101 10.8028 17.4015 10.8081 17.3889C10.8114 17.3811 10.8117 17.3717 10.8121 17.3566C10.8129 17.328 10.8143 17.2788 10.8377 17.1804C10.8673 17.056 10.8947 17.0425 10.9501 17.0151C10.9807 17 11.0199 16.9806 11.0727 16.9358L11.0646 16.0308C10.9706 16.0601 10.8912 16.1003 10.814 16.1395C10.7341 16.1801 10.6564 16.2196 10.567 16.2444C10.3114 16.3153 10.2609 16.2427 10.1931 16.1452C10.1713 16.1138 10.1476 16.0798 10.1147 16.0471L9.7039 15.7764L9.69108 15.7734C9.56833 15.7441 9.50316 15.7286 9.45122 15.691C9.39241 15.6484 9.35055 15.5776 9.26131 15.4265C9.20885 15.3377 9.13999 15.2211 9.04174 15.0663C8.94113 14.9095 8.90416 14.8923 8.84415 14.8643C8.80465 14.846 8.75517 14.823 8.67098 14.7524C8.43285 14.5529 8.56383 14.0805 8.65255 13.7605C8.66355 13.7209 8.67393 13.6834 8.68285 13.6493C8.74135 13.6467 8.79189 13.6454 8.83527 13.6443C8.9728 13.6408 9.03849 13.6391 9.05812 13.6051C9.07607 13.5741 9.05552 13.5162 9.01618 13.4053C8.99943 13.358 8.97926 13.3011 8.9572 13.2326C8.88895 13.0271 8.95038 12.9704 9.02679 12.8999C9.08737 12.8441 9.15736 12.7795 9.17966 12.6252C9.11957 12.6257 8.92542 12.6791 8.73737 12.7308C8.60295 12.7678 8.47134 12.804 8.3944 12.8193C8.11111 12.8791 7.82169 12.8958 7.53425 12.869L7.43373 12.8642C7.1134 12.8496 7.0195 12.8453 6.75938 12.6521C6.25656 12.2816 6.19822 12.185 6.00051 11.8577C5.95155 11.7766 5.89405 11.6815 5.81915 11.5645C5.71766 11.4048 5.62882 11.3208 5.54358 11.2402C5.47996 11.18 5.41834 11.1217 5.35496 11.0353C5.31475 10.98 5.26498 10.8555 5.21032 10.7188C5.15311 10.5757 5.09052 10.4192 5.02796 10.3146C4.85458 10.0283 4.84408 10.0242 4.76515 9.99313C4.71885 9.9749 4.649 9.94739 4.5089 9.8482C4.54518 9.48926 4.66155 9.38802 4.78137 9.28378C4.86485 9.21116 4.95 9.13708 5.0109 8.97336C4.85356 8.64364 4.60366 8.60686 4.30265 8.56256C4.16675 8.54256 4.02042 8.52103 3.8675 8.4703C3.06019 8.20791 3.00903 8.03055 2.97548 7.9142C2.96221 7.86822 2.9517 7.83177 2.89835 7.80336C2.78323 7.79423 2.69932 7.79506 2.63609 7.79568C2.55384 7.7965 2.50659 7.79697 2.4712 7.77469C2.42345 7.74462 2.39728 7.67315 2.33578 7.50527L2.32072 7.46419C2.05601 7.45982 1.79658 7.43749 1.53707 7.41516C1.36114 7.40002 1.18517 7.38487 1.00751 7.37532C0.819959 7.36528 0.664115 7.3652 0.53563 7.36514C0.100767 7.36493 -0.0207016 7.36487 0.0027663 6.97907C0.198648 6.92626 0.685152 6.98987 1.19359 7.05635C1.68214 7.12022 2.19094 7.18674 2.48162 7.15518C2.49226 7.0598 2.49807 6.96749 2.50377 6.877C2.51595 6.6836 2.52761 6.49853 2.58469 6.30969C2.86101 6.31451 3.10489 6.75355 3.22116 6.96284L3.2261 6.97173C3.28352 6.96605 3.32426 6.95542 3.36108 6.94581C3.42458 6.92925 3.47641 6.91573 3.58202 6.93586C3.63368 6.94537 3.6683 6.95905 3.7009 6.97193C3.75486 6.99326 3.80327 7.01238 3.91421 7.00679C4.0801 6.9977 4.13654 6.97163 4.1704 6.95598C4.18066 6.95124 4.18884 6.94746 4.19737 6.94539C4.2311 6.93723 4.2702 6.95594 4.46388 7.04858L4.51632 7.07365C4.74631 7.16489 4.99685 7.1726 5.23113 7.09566C5.41238 7.02825 5.45969 7.06878 5.51815 7.11886C5.57353 7.1663 5.63893 7.22232 5.83768 7.20328C5.82977 7.1132 5.81853 7.02249 5.80764 6.93457C5.74398 6.4209 5.69196 6.00119 6.38269 6.3423C6.5898 6.44452 6.59581 6.45774 6.63276 6.53901C6.64886 6.57442 6.67082 6.62274 6.71785 6.69697L7.2814 6.75485C7.51349 6.83476 7.48531 7.16089 7.33701 7.29868C7.47847 7.26335 7.60631 7.18017 7.7199 7.10626C7.97072 6.94307 8.15209 6.82507 8.25722 7.36716L8.5731 7.3851C8.59928 7.45227 8.61015 7.5019 8.61851 7.54008C8.63999 7.63817 8.64494 7.66076 8.85043 7.71123L8.90255 7.72451C9.03296 7.75832 9.19503 7.80034 9.29533 7.73732C9.29239 7.67913 9.30062 7.6577 9.3041 7.64867C9.30523 7.64573 9.30585 7.6441 9.30542 7.64295C9.30489 7.64152 9.30274 7.64082 9.29793 7.63924C9.28545 7.63516 9.25507 7.62523 9.18855 7.5816C9.15012 7.55638 9.13669 7.55381 9.12774 7.5521ZM6.86173 10.4829C6.84705 10.4391 6.83076 10.3905 6.70376 10.3032L6.9581 9.08019C7.00282 9.07747 7.04451 9.07443 7.0834 9.07158C7.3475 9.0523 7.48296 9.04241 7.56762 9.20656C7.61741 9.30433 7.65697 9.408 7.68552 9.51557C7.70208 9.5815 7.70653 9.61683 7.70934 9.63908C7.71108 9.65291 7.71219 9.66168 7.71517 9.6696C7.72034 9.68331 7.73114 9.69445 7.76065 9.72489C7.77377 9.73842 7.79067 9.75585 7.81231 9.77892C7.83161 9.7994 7.85767 9.82862 7.8876 9.86219C7.98877 9.97566 8.13417 10.1387 8.21199 10.1809C8.30026 10.2288 8.37264 10.2353 8.4321 10.2406C8.54545 10.2508 8.61182 10.2567 8.6517 10.538C8.54931 10.6408 8.40239 10.7096 8.25484 10.7787C8.16838 10.8192 8.0817 10.8597 8.00362 10.9073C7.94253 10.9443 7.89302 10.9791 7.84982 11.0094C7.68328 11.1265 7.61059 11.1776 7.33034 11.0313L7.27991 10.7598C6.90198 10.603 6.88366 10.5483 6.86173 10.4829ZM8.47522 8.53959C8.53685 8.62202 8.61501 8.67402 8.69628 8.72808C8.74604 8.76119 8.79697 8.79507 8.84597 8.83719C8.94754 8.92399 8.99134 8.98899 9.04178 9.06386C9.07236 9.10924 9.10537 9.15825 9.15518 9.21794C9.29477 9.38482 9.34942 9.39094 9.39733 9.39631C9.46903 9.40434 9.52561 9.41068 9.82921 9.95174C9.96722 9.89905 9.99684 9.80959 10.0375 9.68666C10.0598 9.61936 10.0854 9.54202 10.134 9.4552C10.1428 9.4401 10.1527 9.42354 10.1634 9.40579C10.2428 9.27403 10.3617 9.07662 10.3349 8.92361C10.1243 8.91572 9.91445 8.89175 9.70686 8.85186C9.45607 8.80061 9.4576 8.75128 9.46071 8.65122C9.46254 8.59212 9.46493 8.51531 9.41619 8.40996C9.34204 8.24689 9.10773 8.20368 8.89714 8.22161C8.74651 8.23409 8.74634 8.23771 8.74461 8.27581C8.74352 8.29997 8.74179 8.33801 8.70064 8.40099C8.65599 8.46896 8.61654 8.48268 8.56466 8.50071C8.53814 8.50993 8.50837 8.52028 8.473 8.53959H8.47522Z" fill="#E0B787"/>
<path fill-rule="evenodd" clip-rule="evenodd" d="M23.2726 8.87659L23.3713 8.89418C23.3997 8.80191 23.4362 8.72184 23.4715 8.64468C23.5632 8.44379 23.6461 8.26242 23.5529 7.93556C23.537 7.87958 23.5219 7.8295 23.5082 7.78382C23.4145 7.47184 23.3822 7.36434 23.5581 6.97755C23.8005 6.44596 24.1157 6.00568 24.8275 5.98775C25.2205 5.97796 25.417 6.02362 25.6988 6.21604C25.771 6.26515 25.851 6.30396 25.9305 6.34252C26.1031 6.42624 26.2732 6.50879 26.3565 6.693C26.4483 6.89602 26.4222 6.95699 26.3769 7.06331C26.3621 7.09789 26.3453 7.13729 26.3298 7.18791C26.2891 7.31736 26.2967 7.46635 26.3041 7.61097C26.307 7.66673 26.3098 7.72185 26.3098 7.77494C26.3115 7.92791 26.2824 8.06814 26.2554 8.19863C26.2117 8.40965 26.1733 8.59521 26.2786 8.76801C26.339 8.6966 26.3729 8.58641 26.4074 8.47419C26.4288 8.40448 26.4504 8.33396 26.4788 8.27148C26.7154 8.26495 26.9979 8.35872 27.1462 8.57559L27.3687 8.56255C27.4217 8.42342 27.4263 8.23252 27.4307 8.05141L27.4309 8.04074C27.4891 8.0417 27.5453 8.04434 27.5995 8.04689C27.866 8.05939 28.0819 8.06952 28.2199 7.86626C28.3074 7.73654 28.3099 7.73614 28.3762 7.72593C28.4082 7.72099 28.455 7.71376 28.5336 7.68852C28.5638 7.67895 28.5899 7.66923 28.6142 7.66021C28.6996 7.62849 28.7614 7.60551 28.8925 7.629C29.0685 7.80438 29.0198 8.07188 28.9706 8.34212C28.956 8.42238 28.9413 8.50289 28.9325 8.5813C29.0571 8.57251 29.1807 8.54841 29.3057 8.52401C29.459 8.49411 29.6146 8.46378 29.7771 8.46063C29.826 8.45969 29.8994 8.45966 29.9889 8.45962C30.4399 8.45946 31.2991 8.45913 31.4877 8.34078C31.5749 8.28612 31.6119 8.20459 31.6477 8.12594C31.7047 8.00046 31.7584 7.88233 32.0068 7.89235L32.141 8.6612C32.3179 8.657 32.5729 8.63424 32.8522 8.60931C33.4393 8.55691 34.1337 8.49493 34.4352 8.57559V8.81448C34.3109 8.91405 33.4958 8.91853 32.8805 8.92191C32.6041 8.92343 32.3679 8.92473 32.253 8.93434C32.2321 9.01302 32.2163 9.06745 32.2038 9.1103C32.1643 9.24585 32.1585 9.26553 32.1365 9.57029C32.0526 9.61432 31.9659 9.65165 31.877 9.68199C31.7628 9.7273 31.7605 9.73217 31.7523 9.74912C31.7463 9.76145 31.7372 9.78017 31.6798 9.82549C31.2817 10.1413 30.9034 10.1259 30.6087 10.1139C30.198 10.0972 29.9495 10.087 30.0359 10.989C29.7261 11.1559 29.784 11.3972 29.857 11.7011C29.8834 11.8111 29.9118 11.9294 29.9254 12.0554C30.0016 12.7586 29.6773 12.8801 29.5051 12.9446C29.4814 12.9535 29.4606 12.9613 29.4441 12.9694C29.3245 13.0291 29.1976 13.235 29.0792 13.4271C28.9973 13.56 28.9195 13.6862 28.8509 13.7529C28.4555 14.1382 28.2699 14.1019 28.0646 14.0618C28.0166 14.0524 27.9675 14.0428 27.9144 14.0383C27.8961 14.1024 27.8736 14.1615 27.8509 14.2212C27.7966 14.3641 27.7411 14.5102 27.7379 14.7362C27.7358 14.8863 27.7661 14.9958 27.793 15.0928C27.8235 15.2029 27.8495 15.297 27.8188 15.4162C27.7861 15.5426 27.6148 15.9217 27.5451 15.9975C27.443 16.1078 27.2994 16.1015 27.172 16.0959C27.0348 16.0898 26.9162 16.0846 26.8882 16.2266C26.8604 16.4104 26.8818 16.599 26.9497 16.7696C27.1292 17.1634 27.5518 17.7187 28.019 17.8817L27.9708 18.1687C28.3121 18.3978 28.4346 18.6525 28.5875 18.9704C28.6512 19.1028 28.7202 19.2461 28.8124 19.4031L28.8443 19.4561C28.9733 19.6696 29.06 19.8132 29.1238 20.1369C29.1761 20.423 29.2505 20.7037 29.3463 20.9759C29.4032 21.1342 29.4619 21.2723 29.5182 21.4045C29.6671 21.7543 29.7987 22.0636 29.8342 22.6008C29.8994 23.598 29.588 25.3811 29.3618 26.3595C29.3444 26.4348 29.3314 26.4976 29.3205 26.5506C29.2617 26.8355 29.2616 26.8359 28.9421 26.9775C28.7783 27.0501 28.4957 27.3893 28.6685 27.6412C28.7264 27.7227 29.6518 28.4981 29.7934 28.5739C29.9076 28.632 30.0459 28.6561 30.1811 28.6796C30.3268 28.705 30.4689 28.7297 30.5735 28.7957C30.7633 28.9155 30.8263 29.311 30.7143 29.6061C30.4513 29.6603 29.831 29.5569 29.4266 29.4895C29.3445 29.4759 29.2708 29.4636 29.2113 29.4545C28.6352 29.3656 28.2295 29.3721 27.6363 29.395C27.5531 29.3981 27.4765 29.402 27.4062 29.4057C26.7907 29.4376 26.6518 29.4448 26.6724 28.6253C26.6791 28.3456 26.6969 28.0554 26.8014 27.8287C27.1226 27.1341 27.0714 26.9912 26.9945 26.7765C26.9645 26.6928 26.9306 26.5982 26.9134 26.4557C26.9031 26.3676 26.9734 26.1084 27.0268 25.9114C27.0466 25.8386 27.0641 25.7741 27.0743 25.7301C27.1126 25.5627 27.1647 25.5021 27.2166 25.4418C27.2711 25.3783 27.3255 25.3151 27.3635 25.1284C27.3941 24.9801 27.4245 24.8596 27.4502 24.7575C27.5837 24.2272 27.5924 24.1927 26.8711 23.3436C26.7566 23.2091 26.6305 23.012 26.5125 22.8276C26.363 22.594 26.2266 22.3808 26.1437 22.3416L25.0982 24.3889C25.0167 24.6036 24.9511 24.7898 24.8923 24.9566C24.6795 25.5599 24.5559 25.9106 24.0964 26.4484C23.957 26.6114 22.6445 27.8385 22.4918 27.8833C22.3857 27.9144 22.3148 27.9164 22.2621 27.9178C22.1541 27.9208 22.1223 27.9217 22.0202 28.1654C21.8378 28.5984 21.9505 29.0248 22.1685 29.3933C22.3083 29.6311 22.3014 29.7758 22.297 29.868C22.2939 29.9323 22.292 29.9712 22.342 29.9983C22.444 30.0537 22.4447 30.0537 22.4728 30.0538C22.4976 30.0538 22.5436 30.0538 22.6994 30.0921C23.28 30.2323 23.1391 30.9245 23.0375 31.161C22.5578 31.2172 21.8481 31.1446 21.3713 31.0737C20.7199 30.9762 20.6507 30.9281 20.3899 30.7467C20.3105 30.6915 20.2134 30.6239 20.0767 30.5389C20.0307 30.097 20.0574 28.8128 20.2799 28.5332C20.318 28.4858 20.3444 28.4623 20.3654 28.4437C20.4104 28.4037 20.4303 28.386 20.4875 28.2013C20.6056 27.8155 20.675 27.6084 20.713 27.4947C20.7506 27.3826 20.7576 27.3615 20.751 27.3496C20.7495 27.3469 20.7472 27.3446 20.7444 27.3419C20.7256 27.3231 20.6827 27.2806 20.6803 26.9009C20.678 26.6685 20.8234 26.1866 20.9368 26.0546C21.0198 25.9578 21.0985 25.8911 21.1719 25.8289C21.3477 25.6799 21.4936 25.5562 21.5983 25.1047C21.6426 24.9098 21.7443 24.7938 21.885 24.6332C22.1376 24.3451 22.5158 23.9136 22.9129 22.6261C23.1584 21.8295 23.0486 21.4944 22.6549 20.9759C22.398 20.6376 22.4957 20.0619 22.6103 19.3863C22.6767 18.9953 22.7487 18.5707 22.7609 18.1394C22.7661 17.9628 22.7554 17.8006 22.7444 17.6337C22.7331 17.4639 22.7216 17.289 22.7261 17.0892C22.4033 16.9015 22.3427 16.7132 22.2828 16.5269C22.2451 16.4097 22.2076 16.2934 22.1054 16.1785C22.0162 16.078 21.9029 16.0489 21.7894 16.0197C21.591 15.9687 21.3922 15.9176 21.3209 15.4839C21.3017 15.3737 21.277 15.2648 21.2468 15.1577C21.1752 14.868 21.2023 14.581 21.2236 14.3554C21.2329 14.2559 21.2412 14.1684 21.2394 14.0978C21.2326 13.8458 21.24 13.6108 21.2473 13.3771C21.2552 13.1224 21.2632 12.8693 21.2527 12.5976C21.2486 12.486 21.2429 12.3726 21.2371 12.2583C21.2169 11.8585 21.196 11.447 21.2416 11.0591C21.2687 10.8272 21.3387 10.5961 21.4109 10.3578C21.4613 10.1914 21.5128 10.0214 21.5515 9.84506C21.6509 9.3901 21.8622 9.10637 22.1507 8.94331C22.5066 8.73867 22.8904 8.80778 23.2726 8.87659ZM28.188 11.6224L27.7802 11.7855L27.0884 11.2172C26.9284 11.0093 27.0438 10.8051 27.1627 10.5946C27.2136 10.5046 27.2651 10.4134 27.296 10.3204C27.3038 10.2972 27.3089 10.2785 27.3131 10.2632C27.3314 10.1966 27.3319 10.195 27.4525 10.1744C27.8318 10.1083 27.8462 10.2931 27.8662 10.5511C27.8691 10.5891 27.8722 10.6287 27.8766 10.6693C27.9469 11.3341 28.0072 11.394 28.0815 11.4679C28.1137 11.4999 28.1485 11.5346 28.188 11.6224ZM28.9192 10.5283C29.0058 10.5065 29.0501 10.4318 29.1221 10.3107C29.1683 10.2328 29.226 10.1357 29.3136 10.0212C29.3277 10.0027 29.346 9.97936 29.3669 9.95264C29.479 9.80945 29.6674 9.56869 29.7037 9.45532L29.1639 9.35992C29.0037 9.66159 28.9221 10.1549 28.9192 10.5283Z" fill="#E0B787"/>
</svg>
