<svg width="14" height="15" viewBox="0 0 14 15" fill="none" xmlns="http://www.w3.org/2000/svg">
<g clip-path="url(#clip0_605_2254)">
<path fill-rule="evenodd" clip-rule="evenodd" d="M7 0.5C7.50485 0.5 7.91412 0.896933 7.91412 1.38657V4.6004C7.91412 5.09004 7.50485 5.48698 7 5.48698C6.49515 5.48698 6.08588 5.09004 6.08588 4.6004V1.38657C6.08588 0.896933 6.49515 0.5 7 0.5ZM0.0449869 5.40086C0.200995 4.93518 0.716698 4.68034 1.19684 4.83164L4.34833 5.82477C4.82847 5.97608 5.09124 6.47624 4.93523 6.94192C4.77922 7.4076 4.26352 7.66244 3.78338 7.51114L0.631886 6.51801C0.151742 6.3667 -0.111021 5.86654 0.0449869 5.40086ZM13.955 5.40086C14.111 5.86654 13.8483 6.3667 13.3681 6.51801L10.2166 7.51114C9.73648 7.66244 9.22078 7.4076 9.06477 6.94192C8.90876 6.47624 9.17152 5.97608 9.65167 5.82477L12.8032 4.83164C13.2833 4.68034 13.799 4.93518 13.955 5.40086ZM5.7239 9.29607C6.13234 9.58387 6.22288 10.1383 5.92613 10.5344L3.97841 13.1345C3.68166 13.5306 3.11 13.6184 2.70157 13.3306C2.29313 13.0428 2.20259 12.4884 2.49933 12.0922L4.44706 9.49221C4.74381 9.09608 5.31547 9.00826 5.7239 9.29607ZM8.2761 9.29607C8.68453 9.00826 9.25619 9.09608 9.55294 9.49221L11.5007 12.0922C11.7974 12.4884 11.7069 13.0428 11.2984 13.3306C10.89 13.6184 10.3183 13.5306 10.0216 13.1345L8.07387 10.5344C7.77712 10.1383 7.86766 9.58387 8.2761 9.29607Z" fill="white"/>
</g>
<defs>
<clipPath id="clip0_605_2254">
<rect width="14" height="14" fill="white" transform="translate(0 0.5)"/>
</clipPath>
</defs>
</svg>
